<svg xmlns="http://www.w3.org/2000/svg" width="129.325" height="110.419" viewBox="0 0 129.325 110.419">
  <g id="Group_21" data-name="Group 21" transform="translate(1.5 1.5)">
    <path id="Stroke_1" data-name="Stroke 1" d="M85.269,14.631a49.787,49.787,0,1,0,13.45,24.484" fill="none" stroke="#00a5e3" stroke-linecap="round" stroke-miterlimit="10" stroke-width="3"/>
    <path id="Stroke_3" data-name="Stroke 3" d="M39.652,0A39.7,39.7,0,0,0,0,39.652" transform="translate(10.297 10.296)" fill="none" stroke="#00a5e3" stroke-linecap="round" stroke-miterlimit="10" stroke-width="3"/>
    <path id="Stroke_5" data-name="Stroke 5" d="M48.46,8.035a28.491,28.491,0,1,0,8.1,14.619" transform="translate(21.36 21.36)" fill="none" stroke="#00a5e3" stroke-linecap="round" stroke-miterlimit="10" stroke-width="3"/>
    <path id="Stroke_7" data-name="Stroke 7" d="M8.979,0,0,14.309" transform="translate(14.241 92.542)" fill="none" stroke="#00a5e3" stroke-linecap="round" stroke-miterlimit="10" stroke-width="3"/>
    <path id="Stroke_9" data-name="Stroke 9" d="M0,0,8.98,14.309" transform="translate(76.678 92.542)" fill="none" stroke="#00a5e3" stroke-linecap="round" stroke-miterlimit="10" stroke-width="3"/>
    <path id="Stroke_11" data-name="Stroke 11" d="M0,24,43.7,0" transform="translate(49.949 25.943)" fill="none" stroke="#00a5e3" stroke-linecap="round" stroke-miterlimit="10" stroke-width="3"/>
    <path id="Stroke_13" data-name="Stroke 13" d="M12.491,15.813,0,12.49,3.323,0" transform="translate(93.651 13.453)" fill="none" stroke="#00a5e3" stroke-linecap="round" stroke-miterlimit="10" stroke-width="3"/>
    <path id="Stroke_15" data-name="Stroke 15" d="M12.491,15.813,0,12.49,3.323,0" transform="translate(103.575 7.812)" fill="none" stroke="#00a5e3" stroke-linecap="round" stroke-miterlimit="10" stroke-width="3"/>
    <path id="Stroke_17" data-name="Stroke 17" d="M12.491,15.814,0,12.491,3.323,0" transform="translate(113.499 2.17)" fill="none" stroke="#00a5e3" stroke-linecap="round" stroke-miterlimit="10" stroke-width="3"/>
    <path id="Stroke_19" data-name="Stroke 19" d="M2.253,0,0,10,10.3,13" transform="translate(49.562 40.067)" fill="none" stroke="#00a5e3" stroke-linecap="round" stroke-miterlimit="10" stroke-width="3"/>
  </g>
</svg>
