<svg xmlns="http://www.w3.org/2000/svg" width="133.101" height="75.673" viewBox="0 0 133.101 75.673">
  <g id="Group_31" data-name="Group 31" transform="translate(1.5 2.227)">
    <path id="Stroke_1" data-name="Stroke 1" d="M45.872,20.387C30.9,30.436,19.738,13.882,19.738,13.882c-5.291-7.233-9.078.243-9.078.243-2.783,6.764-6.8,6.149-9.162,4.987A2.759,2.759,0,0,1,.114,15.856L1.9,9.725A9.473,9.473,0,0,1,7.18,3.7L13.932.733c2.415-1.062,4.641-.821,7.622-.212l17.6,4.169Z" transform="translate(50.556 18.984)" fill="none" stroke="#00a5e3" stroke-miterlimit="10" stroke-width="3"/>
    <path id="Stroke_3" data-name="Stroke 3" d="M18.854,8.69,7.262,12.375,0,2.255S8.478,5.765,15.137,0Z" transform="translate(81.291 39.37)" fill="none" stroke="#00a5e3" stroke-miterlimit="10" stroke-width="3"/>
    <path id="Stroke_5" data-name="Stroke 5" d="M0,0V52.623L10.292,56.7l18.447-45.05Z" fill="none" stroke="#00a5e3" stroke-miterlimit="10" stroke-width="3"/>
    <path id="Stroke_7" data-name="Stroke 7" d="M11.37,0,24.511,5.535,12.861,32.769,0,27.766" transform="translate(15.878 15.291)" fill="none" stroke="#00a5e3" stroke-miterlimit="10" stroke-width="3"/>
    <path id="Stroke_9" data-name="Stroke 9" d="M28.739,0V52.623L18.447,56.7,0,11.651Z" transform="translate(101.362 2.847)" fill="none" stroke="#00a5e3" stroke-miterlimit="10" stroke-width="3"/>
    <path id="Stroke_11" data-name="Stroke 11" d="M13.142,0,0,5.535,11.651,32.769l12.86-5" transform="translate(89.711 18.138)" fill="none" stroke="#00a5e3" stroke-miterlimit="10" stroke-width="3"/>
    <path id="Stroke_13" data-name="Stroke 13" d="M9.941,0l10,12.534a3.561,3.561,0,0,1,.575,3.4h0a4.063,4.063,0,0,1-6.79,1.439L0,2.813" transform="translate(70.488 41.557)" fill="none" stroke="#00a5e3" stroke-linecap="round" stroke-miterlimit="10" stroke-width="3"/>
    <path id="Stroke_15" data-name="Stroke 15" d="M0,0,11.548,12.08A5.98,5.98,0,0,0,21.559,9.86q.031-.1.063-.2" transform="translate(64.42 51.216)" fill="none" stroke="#00a5e3" stroke-linecap="round" stroke-miterlimit="10" stroke-width="3"/>
    <path id="Stroke_17" data-name="Stroke 17" d="M0,0,9.55,10.606a6.057,6.057,0,0,0,4.109,2.076c1.8.1,4.084-.588,6-3.729" transform="translate(58.886 56.895)" fill="none" stroke="#00a5e3" stroke-linecap="round" stroke-miterlimit="10" stroke-width="3"/>
    <path id="Stroke_19" data-name="Stroke 19" d="M0,.193S10.515-.68,19.093,1.286" transform="translate(40.39 20.633)" fill="none" stroke="#00a5e3" stroke-miterlimit="10" stroke-width="3"/>
    <path id="Stroke_21" data-name="Stroke 21" d="M0,0A236.878,236.878,0,0,1,27.572,23.218l4.476,4.3a3.91,3.91,0,0,0,6.574-2.084l.018-.126" transform="translate(30.78 43.289)" fill="none" stroke="#00a5e3" stroke-miterlimit="10" stroke-width="3"/>
    <path id="Stroke_23" data-name="Stroke 23" d="M1.949,0,.772,1.316A3.027,3.027,0,0,0,1.11,5.677,3.365,3.365,0,0,0,5.76,5.3l1.149-1.3" transform="translate(36.412 48.974)" fill="none" stroke="#00a5e3" stroke-miterlimit="10" stroke-width="3"/>
    <path id="Stroke_25" data-name="Stroke 25" d="M9.115,4.964,6.535,7.778A3.762,3.762,0,0,1,.92,2.771L3.324,0" transform="translate(40.288 53.223)" fill="none" stroke="#00a5e3" stroke-miterlimit="10" stroke-width="3"/>
    <path id="Stroke_27" data-name="Stroke 27" d="M2.652,0,.982,1.821a3.734,3.734,0,0,0,5.47,5.084L8.2,5.054" transform="translate(46.751 58.187)" fill="none" stroke="#00a5e3" stroke-miterlimit="10" stroke-width="3"/>
    <path id="Stroke_29" data-name="Stroke 29" d="M6.972,4.648l-.918.94A3.529,3.529,0,0,1,.961.7l.66-.7" transform="translate(53.085 63.496)" fill="none" stroke="#00a5e3" stroke-miterlimit="10" stroke-width="3"/>
  </g>
</svg>
