<svg xmlns="http://www.w3.org/2000/svg" width="108.954" height="118.201" viewBox="0 0 108.954 118.201">
  <g id="Group_17" data-name="Group 17" transform="translate(1.508 1.5)">
    <path id="Stroke_1" data-name="Stroke 1" d="M61.811,0H.375s-4.963,35.192,21.2,62.037H40.606C66.774,35.192,61.811,0,61.811,0Z" transform="translate(21.876)" fill="none" stroke="#00a5e3" stroke-linejoin="round" stroke-miterlimit="10" stroke-width="3"/>
    <path id="Stroke_3" data-name="Stroke 3" d="M0,0H12.325A76.712,76.712,0,0,1,7.092,26.665" transform="translate(63.708 8)" fill="none" stroke="#00a5e3" stroke-linecap="round" stroke-linejoin="round" stroke-miterlimit="10" stroke-width="3"/>
    <path id="Stroke_5" data-name="Stroke 5" d="M64.164,14.036h0A14.036,14.036,0,0,0,50.128,0H14.036A14.036,14.036,0,0,0,0,14.036Z" transform="translate(20.887 101.165)" fill="none" stroke="#00a5e3" stroke-linejoin="round" stroke-miterlimit="10" stroke-width="3"/>
    <path id="Stroke_7" data-name="Stroke 7" d="M36.513,30.63A10.151,10.151,0,0,0,33.5,27.587c-3-1.927-8.294-5.061-8.294-10.695,0-7.218,3.743-10.431,3.743-10.431L28.673,0H10.118l-.28,6.461s3.743,3.213,3.743,10.431c0,5.634-5.29,8.768-8.294,10.695A10.151,10.151,0,0,0,2.278,30.63a14.669,14.669,0,0,0-2.256,8.5H38.769A14.669,14.669,0,0,0,36.513,30.63Z" transform="translate(33.574 62.037)" fill="none" stroke="#00a5e3" stroke-linejoin="round" stroke-miterlimit="10" stroke-width="3"/>
    <path id="Stroke_9" data-name="Stroke 9" d="M7.569,0H27.01a2.474,2.474,0,0,1,2.433,2.924C28.052,10.529,22.29,30.34,0,30.34" transform="translate(76.454 11.7)" fill="none" stroke="#00a5e3" stroke-linejoin="round" stroke-miterlimit="10" stroke-width="3"/>
    <path id="Stroke_11" data-name="Stroke 11" d="M0,0H15.042S13.125,8.088,6.667,13.421" transform="translate(83.926 17.863)" fill="none" stroke="#00a5e3" stroke-linecap="round" stroke-linejoin="round" stroke-miterlimit="10" stroke-width="3"/>
    <path id="Stroke_13" data-name="Stroke 13" d="M21.915,0H2.474A2.474,2.474,0,0,0,.041,2.924C1.432,10.529,7.194,30.34,29.484,30.34" transform="translate(0 11.7)" fill="none" stroke="#00a5e3" stroke-linejoin="round" stroke-miterlimit="10" stroke-width="3"/>
    <path id="Stroke_15" data-name="Stroke 15" d="M15.042,0H0S1.917,8.088,8.375,13.421" transform="translate(6.97 17.863)" fill="none" stroke="#00a5e3" stroke-linecap="round" stroke-linejoin="round" stroke-miterlimit="10" stroke-width="3"/>
  </g>
</svg>
