<svg id="Group_6" data-name="Group 6" xmlns="http://www.w3.org/2000/svg" xmlns:xlink="http://www.w3.org/1999/xlink" width="105" height="105" viewBox="0 0 105 105">
  <defs>
    <clipPath id="clip-path">
      <path id="Clip_2" data-name="Clip 2" d="M0,0H105V105H0Z" fill="none"/>
    </clipPath>
  </defs>
  <g id="Group_3" data-name="Group 3">
    <path id="Clip_2-2" data-name="Clip 2" d="M0,0H105V105H0Z" fill="none"/>
    <g id="Group_3-2" data-name="Group 3" clip-path="url(#clip-path)">
      <path id="Fill_1" data-name="Fill 1" d="M52.5,105A52.5,52.5,0,1,1,105,52.5,52.56,52.56,0,0,1,52.5,105Zm0-100.246A47.745,47.745,0,1,0,100.246,52.5,47.8,47.8,0,0,0,52.5,4.755Z" fill="#00a5e3" stroke="#242678" stroke-miterlimit="10" stroke-width="1"/>
    </g>
  </g>
  <path id="Fill_4" data-name="Fill 4" d="M15.342,28a2.175,2.175,0,0,1-1.5-.607L.622,14.538a2.034,2.034,0,0,1,0-2.928,2.172,2.172,0,0,1,3.011,0L15.342,23,38.366.606a2.171,2.171,0,0,1,3.01,0,2.029,2.029,0,0,1,0,2.928L16.847,27.393a2.175,2.175,0,0,1-1.5.607" transform="translate(32 41)" fill="#00a5e3"/>
</svg>
